<svg width="6" height="9" viewBox="0 0 6 9" fill="none" xmlns="http://www.w3.org/2000/svg">
<path d="M2.484 6.6169C2.42 6.6169 2.364 6.59155 2.316 6.54085C2.268 6.49014 2.244 6.43099 2.244 6.36338V5.95775C2.284 5.56056 2.4 5.21409 2.592 4.91831C2.792 4.61408 3.072 4.26761 3.432 3.87887C3.696 3.60845 3.896 3.37606 4.032 3.18169C4.168 2.98732 4.248 2.78873 4.272 2.58592C4.304 2.23944 4.196 1.96479 3.948 1.76197C3.7 1.5507 3.4 1.44507 3.048 1.44507C2.264 1.44507 1.792 1.85493 1.632 2.67465C1.576 2.86901 1.46 2.9662 1.284 2.9662H0.264C0.184 2.9662 0.12 2.94085 0.072 2.89014C0.024 2.83099 0 2.75493 0 2.66197C0.016 2.19718 0.148 1.76197 0.396 1.35634C0.644 0.950704 1.004 0.625352 1.476 0.380282C1.948 0.126761 2.5 0 3.132 0C3.796 0 4.34 0.114085 4.764 0.342254C5.196 0.561972 5.508 0.845071 5.7 1.19155C5.9 1.53803 6 1.89718 6 2.26901C6 2.7 5.908 3.07183 5.724 3.38451C5.548 3.68873 5.28 4.04366 4.92 4.4493C4.664 4.74507 4.464 4.99859 4.32 5.20986C4.184 5.41268 4.092 5.63239 4.044 5.86901C4.012 6.08028 3.992 6.22394 3.984 6.3C3.92 6.51127 3.812 6.6169 3.66 6.6169H2.484ZM2.448 9C2.368 9 2.3 8.97042 2.244 8.91127C2.188 8.85211 2.16 8.78028 2.16 8.69578V7.59296C2.16 7.50845 2.188 7.43662 2.244 7.37746C2.3 7.30986 2.368 7.27606 2.448 7.27606H3.612C3.7 7.27606 3.772 7.30563 3.828 7.36479C3.884 7.42394 3.912 7.5 3.912 7.59296V8.69578C3.912 8.78028 3.884 8.85211 3.828 8.91127C3.772 8.97042 3.7 9 3.612 9H2.448Z" fill="#2D7DE1"/>
</svg>
