<svg xmlns="http://www.w3.org/2000/svg" width="120" height="51" style="">
    <path fill="#ffffff"
        d="M22.750780917358398,6.585060487060545 c1.41724,-1.7726600000000001 2.3789700000000003,-4.15282 2.12532,-6.58506 c-2.07464,0.10316000000000002 -4.60634,1.36871 -6.07207,3.14276 c-1.31607,1.5192 -2.4809,3.99902 -2.17723,6.3293 C18.955690917358396,9.674070487060547 21.282430917358397,8.307980487060547 22.750780917358398,6.585060487060545 "
        id="svg_2" />
    <path fill="#ffffff"
        d="M24.8496409173584,9.927050487060548 c-3.38211,-0.20146000000000003 -6.25773,1.9195099999999998 -7.87286,1.9195099999999998 c-1.6160200000000002,0 -4.08931,-1.81799 -6.76438,-1.76899 c-3.48177,0.05114000000000001 -6.7124500000000005,2.01976 -8.4793,5.15079 c-3.63411,6.2636 -0.9590400000000001,15.55471 2.5749400000000002,20.65606 c1.71618,2.5238 3.78447,5.30269 6.50976,5.20287 c2.5749400000000002,-0.10104 3.58421,-1.6673200000000001 6.71416,-1.6673200000000001 c3.12765,0 4.03679,1.6673200000000001 6.76252,1.61681 c2.82665,-0.05054000000000001 4.59381,-2.52506 6.30997,-5.05132 c1.9687800000000002,-2.8770000000000002 2.77473,-5.65498 2.8254200000000003,-5.80748 c-0.05070000000000001,-0.05051000000000001 -5.45058,-2.12204 -5.50065,-8.33358 c-0.050980000000000004,-5.20101 4.23951,-7.6749 4.44144,-7.82832 C29.9477809173584,10.43263048706055 26.162080917358395,10.028570487060549 24.8496409173584,9.927050487060548 "
        id="svg_3" />
    <path fill="#ffffff"
        d="M54.2984309173584,2.888340487060546 c7.35096,0 12.4697,5.06708 12.4697,12.44437 c0,7.40363 -5.22407,12.49704 -12.65403,12.49704 h-8.13892 v12.94318 h-5.88037 v-37.8846 H54.2984309173584 zM45.9751709173584,22.893830487060548 h6.74732 c5.11975,0 8.0336,-2.75636 8.0336,-7.53479 c0,-4.77792 -2.91385,-7.50845 -8.00727,-7.50845 h-6.77365 V22.893830487060548 z"
        id="svg_5" />
    <path fill="#ffffff"
        d="M68.3045509173584,32.923170487060545 c0,-4.8311 3.70182,-7.79761 10.26583,-8.16526 l7.5606100000000005,-0.44614000000000004 v-2.12639 c0,-3.07185 -2.07423,-4.90959 -5.53905,-4.90959 c-3.2825100000000003,0 -5.3304100000000005,1.57492 -5.82871,4.04313 h-5.35574 c0.31499000000000005,-4.98859 4.56777,-8.66407 11.3941,-8.66407 c6.69466,0 10.97377,3.54432 10.97377,9.08388 v19.03421 h-5.43472 v-4.54194 h-0.13065 c-1.60125,3.07185 -5.09341,5.01441 -8.71623,5.01441 C72.0853609173584,41.24541048706055 68.3045509173584,37.88491048706055 68.3045509173584,32.923170487060545 zM86.1309909173584,30.429130487060547 v-2.17905 l-6.8,0.41981000000000007 c-3.3868300000000002,0.23649000000000003 -5.30306,1.73291 -5.30306,4.09579 c0,2.41504 1.9952299999999998,3.9904599999999997 5.04075,3.9904599999999997 C83.0328109173584,36.75614048706055 86.1309909173584,34.02561048706055 86.1309909173584,30.429130487060547 z"
        id="svg_6" />
    <path fill="#ffffff"
        d="M96.90625091735839,50.93343048706055 v-4.5946 c0.41930000000000006,0.10483 1.36425,0.10483 1.83723,0.10483 c2.6252,0 4.04313,-1.10245 4.90908,-3.9378 c0,-0.052670000000000015 0.4993100000000001,-1.68025 0.4993100000000001,-1.70658 l-9.97616,-27.64562 h6.14268 l6.98432,22.47371 h0.10432000000000001 l6.98433,-22.47371 h5.9857 l-10.34483,29.06304 c-2.36186,6.69517 -5.0924,8.84789 -10.81577,8.84789 C98.7434909173584,51.06459048706054 97.3255609173584,51.01192048706055 96.90625091735839,50.93343048706055 z"
        id="svg_7" />
</svg>