<svg width="24" height="24" viewBox="0 0 24 24" fill="none" xmlns="http://www.w3.org/2000/svg">
    <path fill-rule="evenodd" clip-rule="evenodd"
        d="M9 6C9 4.34315 10.3431 3 12 3C13.6569 3 15 4.34315 15 6C15 6.54809 14.8539 7.05903 14.5993 7.49927C14.3227 7.97733 14.4861 8.58906 14.9641 8.86561C15.4422 9.14215 16.0539 8.97879 16.3305 8.50073C16.7565 7.76427 17 6.90906 17 6C17 5.72564 16.9779 5.45644 16.9354 5.19409C17.2657 5.06869 17.6242 5 18 5C19.6569 5 21 6.34315 21 8C21 9.39925 20.0411 10.5771 18.7432 10.9075C17.9146 11.1184 17 11.8523 17 13V14.8579C15.473 14.3053 13.7781 14 11.9996 14C10.2214 14 8.5268 14.3051 7 14.8576V13C7 11.8523 6.08542 11.1184 5.25683 10.9075C3.95888 10.5771 3 9.39925 3 8C3 6.34315 4.34315 5 6 5C6.37581 5 6.73432 5.06869 7.06461 5.19409C7.0221 5.45644 7 5.72564 7 6C7 6.90906 7.24351 7.76427 7.66952 8.50073C7.94607 8.97879 8.55779 9.14215 9.03585 8.86561C9.51392 8.58906 9.67728 7.97733 9.40073 7.49927C9.14607 7.05903 9 6.54809 9 6ZM17 17.0097C15.5351 16.3706 13.8293 16 11.9996 16C10.1702 16 8.46475 16.3704 7 17.0093V19C7 19.5523 7.44772 20 8 20H12H16C16.5523 20 17 19.5523 17 19V17.0097ZM12 22H8C6.34315 22 5 20.6569 5 19V13.0012L4.99957 13.0001C4.99777 12.9959 4.99097 12.9821 4.97239 12.9621C4.93165 12.9181 4.85735 12.8696 4.76341 12.8457C2.60064 12.2951 1 10.3357 1 8C1 5.23858 3.23858 3 6 3C6.62428 3 7.22299 3.11482 7.77523 3.32461C8.66191 1.92736 10.2227 1 12 1C13.7773 1 15.3381 1.92736 16.2248 3.32461C16.777 3.11482 17.3757 3 18 3C20.7614 3 23 5.23858 23 8C23 10.3357 21.3994 12.2951 19.2366 12.8457C19.1427 12.8696 19.0684 12.9181 19.0276 12.9621C19.009 12.9821 19.0022 12.9959 19.0004 13.0001L19 13.0012V19C19 20.6569 17.6569 22 16 22H12Z"
        fill="#2D7DE1" />
</svg>
