<svg width="32" height="32" viewBox="0 0 32 32" fill="none" xmlns="http://www.w3.org/2000/svg">
    <path
        d="M26.369 5.62769C20.6404 -0.0991157 11.354 -0.0977407 5.62715 5.63084C-0.0996662 11.3594 -0.098291 20.6458 5.6303 26.3726C11.3589 32.0994 20.6453 32.0981 26.3721 26.3695C29.1224 23.6183 30.6671 19.8872 30.6663 15.997C30.6655 12.1075 29.1197 8.37758 26.369 5.62769ZM23.5451 21.764C23.5445 21.7646 23.5438 21.7653 23.5432 21.7659V21.7611L22.8 22.4993C21.839 23.4725 20.4393 23.8729 19.1089 23.5553C17.7686 23.1965 16.4944 22.6254 15.3347 21.8637C14.2573 21.1751 13.2588 20.3702 12.3574 19.4633C11.528 18.6399 10.7828 17.7359 10.1329 16.7646C9.42203 15.7195 8.85937 14.581 8.46091 13.3815C8.00412 11.9723 8.38265 10.4261 9.4387 9.38728L10.3089 8.51708C10.5508 8.27405 10.944 8.27319 11.187 8.51513C11.1876 8.51576 11.1883 8.51639 11.1889 8.51708L13.9364 11.2646C14.1795 11.5066 14.1803 11.8997 13.9384 12.1427C13.9378 12.1433 13.9371 12.1439 13.9364 12.1446L12.3231 13.7579C11.8602 14.2158 11.802 14.9434 12.1862 15.4691C12.7698 16.2699 13.4155 17.0234 14.1174 17.7229C14.8999 18.5088 15.7506 19.2237 16.6596 19.8593C17.1848 20.2256 17.8968 20.1639 18.3511 19.7127L19.9106 18.1287C20.1526 17.8856 20.5457 17.8848 20.7887 18.1267C20.7893 18.1273 20.7899 18.128 20.7906 18.1287L23.5431 20.886C23.7862 21.1279 23.787 21.521 23.5451 21.764Z"
        fill="#2D7DE1" />
</svg>
