<svg width="24" height="24" viewBox="0 0 24 24" fill="none" xmlns="http://www.w3.org/2000/svg">
<path fill-rule="evenodd" clip-rule="evenodd" d="M10.7071 11.2929C10.3166 10.9024 9.68342 10.9024 9.29289 11.2929C8.90237 11.6834 8.90237 12.3166 9.29289 12.7071L10.5858 14L9.29289 15.2929C8.90237 15.6834 8.90237 16.3166 9.29289 16.7071C9.68342 17.0976 10.3166 17.0976 10.7071 16.7071L12 15.4142L13.2929 16.7071C13.6834 17.0976 14.3166 17.0976 14.7071 16.7071C15.0976 16.3166 15.0976 15.6834 14.7071 15.2929L13.4142 14L14.7071 12.7071C15.0976 12.3166 15.0976 11.6834 14.7071 11.2929C14.3166 10.9024 13.6834 10.9024 13.2929 11.2929L12 12.5858L10.7071 11.2929Z" fill="black" fill-opacity="0.87"/>
<path fill-rule="evenodd" clip-rule="evenodd" d="M6.13729 9L6.80839 19.0665C6.84341 19.5918 7.27971 20 7.80618 20H16.1929C16.7193 20 17.1556 19.5918 17.1906 19.0665L17.8617 9H6.13729ZM5.0684 7C4.48994 7 4.03214 7.48934 4.07062 8.06652L4.81282 19.1996C4.91788 20.7755 6.22679 22 7.80618 22H16.1929C17.7723 22 19.0812 20.7755 19.1862 19.1996L19.9284 8.06652C19.9669 7.48934 19.5091 7 18.9306 7H5.0684Z" fill="black" fill-opacity="0.87"/>
<path fill-rule="evenodd" clip-rule="evenodd" d="M9.76389 4C10.3132 3.38625 11.1115 3 12 3C12.8885 3 13.6868 3.38625 14.2361 4H9.76389ZM7.41604 4C8.1876 2.2341 9.94968 1 12 1C14.0503 1 15.8124 2.2341 16.584 4H20C20.5523 4 21 4.44772 21 5C21 5.55228 20.5523 6 20 6H17H15H9H7H4C3.44772 6 3 5.55228 3 5C3 4.44772 3.44772 4 4 4H7.41604Z" fill="black" fill-opacity="0.87"/>
</svg>
