<svg width="24" height="24" viewBox="0 0 24 24" fill="none" xmlns="http://www.w3.org/2000/svg">
    <path fill-rule="evenodd" clip-rule="evenodd"
        d="M9.5 3C8.83454 3 8 3.71697 8 5H11C11 3.71697 10.1655 3 9.5 3ZM12 2.19534C11.389 1.4734 10.5276 1 9.5 1C7.40403 1 6 2.96932 6 5H3C2.44772 5 2 5.44772 2 6V12C2 12.5523 2.44772 13 3 13H4V20C4 21.1046 4.89543 22 6 22H11H13H18C19.1046 22 20 21.1046 20 20V13H21C21.5523 13 22 12.5523 22 12V6C22 5.44772 21.5523 5 21 5H18C18 2.96932 16.596 1 14.5 1C13.4724 1 12.611 1.4734 12 2.19534ZM13 5H16C16 3.71697 15.1655 3 14.5 3C13.8345 3 13 3.71697 13 5ZM4 7V11H5H11V7H4ZM13 7V11H19H20V7H13ZM11 13H6V20H11V13ZM13 20V13H18V20H13Z"
        fill="#2D7DE1" />
</svg>
