<svg width="148" height="71" viewBox="0 0 148 71" fill="none" xmlns="http://www.w3.org/2000/svg">
    <path
        d="M74 71C114.869 71 148 55.1061 148 35.5C148 15.8939 114.869 0 74 0C33.1309 0 0 15.8939 0 35.5C0 55.1061 33.1309 71 74 71Z"
        fill="#2D7DE1" />
    <path
        d="M94.9576 56.0422H91.0878C90.7058 56.0422 90.3741 55.7715 90.3339 55.4206L89.1176 44.8839C89.0875 44.6232 88.6854 44.6032 88.6251 44.8538L85.9011 55.18C85.8207 55.4908 85.5192 55.7113 85.1674 55.7113H81.197C80.8452 55.7113 80.5436 55.4908 80.4632 55.18L77.7392 44.8538C77.6689 44.6032 77.2768 44.6232 77.2467 44.8839L76.0304 55.4206C75.9902 55.7715 75.6686 56.0422 75.2766 56.0422H71.4067C70.9544 56.0422 70.6026 55.6712 70.6629 55.2602L73.2361 37.6355C73.2863 37.2946 73.608 37.034 73.9799 37.034H79.3475C79.6892 37.034 79.9908 37.2445 80.0812 37.5553L82.9359 47.7612C82.9962 47.9918 83.3581 47.9918 83.4284 47.7612L86.2831 37.5553C86.3736 37.2445 86.6651 37.034 87.0169 37.034H92.3844C92.7664 37.034 93.078 37.2946 93.1282 37.6355L95.7014 55.2602C95.7718 55.6712 95.42 56.0422 94.9576 56.0422ZM53.7963 52.8942V57.2452C53.7963 57.6262 53.4545 57.937 53.0424 57.937H50.238C49.8259 57.937 49.4841 57.6262 49.4841 57.2452V56.5033C49.4841 56.2527 49.263 56.0422 48.9815 56.0422H38.5279C38.2464 56.0422 38.0253 56.2527 38.0253 56.5033V57.2452C38.0253 57.6262 37.6835 57.937 37.2714 57.937H34.467C34.0549 57.937 33.7131 57.6262 33.7131 57.2452V52.8942C33.7131 52.5132 34.0549 52.2024 34.467 52.2024H35.643C35.7536 52.2024 35.8541 52.1323 35.8843 52.032L40.2266 37.6355C40.3673 37.2646 40.7493 37.0239 41.1714 37.0239H46.338C46.7601 37.0239 47.1421 37.2646 47.2828 37.6355L51.6251 52.032C51.6553 52.1323 51.7558 52.2024 51.8664 52.2024H53.0424C53.4545 52.2024 53.7963 52.5132 53.7963 52.8942ZM41.0408 51.9217C41.0106 52.0621 41.1212 52.2024 41.282 52.2024H46.2173C46.3782 52.2024 46.4988 52.0621 46.4586 51.9217L43.9959 42.7284C43.9256 42.5079 43.5738 42.5079 43.5034 42.7284L41.0408 51.9217ZM113.131 56.0422H109.563C109.13 56.0422 108.738 55.7815 108.608 55.4005L108.175 53.626C108.145 53.5158 108.045 53.4456 107.934 53.4456H102.285C102.165 53.4456 102.064 53.5158 102.044 53.626L101.612 55.4005C101.481 55.7815 101.089 56.0422 100.657 56.0422H97.0886C96.5659 56.0422 96.204 55.571 96.3749 55.1198L101.451 37.6455C101.592 37.2746 101.974 37.034 102.396 37.034H107.814C108.236 37.034 108.618 37.2746 108.758 37.6455L113.835 55.1198C114.026 55.5609 113.654 56.0422 113.131 56.0422ZM106.889 49.6058C107.05 49.6058 107.17 49.4655 107.13 49.3251L105.351 42.7184C105.281 42.4978 104.929 42.4978 104.858 42.7184L103.079 49.3251C103.049 49.4655 103.16 49.6058 103.321 49.6058H106.889ZM70.4819 46.5381C70.4819 52.2927 67.2554 56.3329 61.7471 56.3329C56.2388 56.3329 53.0122 52.2927 53.0122 46.5381C53.0122 40.7835 56.2388 36.7432 61.7471 36.7432C67.2554 36.7432 70.4819 40.7735 70.4819 46.5381ZM65.2752 46.5381C65.2752 43.6708 64.1796 41.9364 61.7471 41.9364C59.3146 41.9364 58.219 43.6708 58.219 46.5381C58.219 49.4053 59.3146 51.1397 61.7471 51.1397C64.1796 51.1397 65.2752 49.4053 65.2752 46.5381ZM87.238 14.968H91.2888C91.7009 14.968 92.0427 15.2788 92.0427 15.6598V33.2845C92.0427 33.6654 91.7009 33.9762 91.2888 33.9762H87.8813C87.4692 33.9762 87.1274 33.6654 87.1274 33.2845V23.1488C87.1274 22.8981 86.7555 22.828 86.6449 23.0485L80.7849 33.4549C80.614 33.7757 80.2622 33.9762 79.8802 33.9762H76.332C75.9199 33.9762 75.5781 33.6654 75.5781 33.2845V15.6598C75.5781 15.2788 75.9199 14.968 76.332 14.968H79.7395C80.1516 14.968 80.4934 15.2788 80.4934 15.6598V24.7929C80.4934 25.0436 80.8552 25.1138 80.9758 24.8932L86.3333 15.4894C86.4942 15.1685 86.846 14.968 87.238 14.968ZM50.9818 14.968H47.2426C46.8707 14.968 46.4787 15.1585 46.3581 15.4593L43.4129 22.9884C43.3325 23.1989 43.0109 23.1889 42.9405 22.9783L40.0155 15.4994C39.8547 15.1685 39.4928 14.968 39.1008 14.968H35.5727C35.2008 14.968 34.9595 15.3189 35.1204 15.6297L40.3975 28.5525C40.4678 28.7129 40.4678 28.9034 40.3975 29.0638L38.5379 33.3145C38.3771 33.6253 38.6183 33.9762 38.9902 33.9762H42.8903C43.2823 33.9762 43.6341 33.7657 43.805 33.4449L51.4241 15.6397C51.5548 15.3289 51.3638 14.968 50.9818 14.968ZM65.2953 26.2567C65.2953 26.016 65.6572 25.9358 65.7778 26.1564L69.5974 33.4449C69.7582 33.7757 70.1201 33.9762 70.5121 33.9762H74.4121C74.784 33.9762 75.0253 33.6253 74.8644 33.3145L69.7482 23.229C69.6376 23.0184 69.6477 22.7778 69.7783 22.5773L73.6784 15.6397C73.8593 15.3289 73.618 14.958 73.2361 14.958H69.708C69.3361 14.958 68.9943 15.1485 68.8234 15.4493L65.7677 21.1136C65.6471 21.3241 65.2953 21.254 65.2953 21.0033V15.9806C65.2953 15.5996 64.9536 15.2888 64.5414 15.2888H61.0837C60.6716 15.2888 60.3298 15.5996 60.3298 15.9806L60.3801 21.0033C60.3801 21.2439 60.0283 21.3241 59.9076 21.1136L56.852 15.4493C56.6811 15.1485 56.3393 14.958 55.9674 14.958H52.4393C52.0573 14.958 51.8161 15.3289 51.997 15.6397L55.897 22.5773C56.0277 22.7778 56.0378 23.0184 55.9272 23.229L50.8109 33.3145C50.6501 33.6253 50.8913 33.9762 51.2633 33.9762H55.1633C55.5553 33.9762 55.9071 33.7657 56.078 33.4449L59.8976 26.1564C60.0182 25.9358 60.3801 26.016 60.3801 26.2567L60.3298 32.9536C60.3298 33.3346 60.6716 33.6454 61.0837 33.6454H64.5314C64.9435 33.6454 65.2853 33.3346 65.2853 32.9536V26.2567H65.2953ZM105.351 15.6598V21.9257C105.351 22.056 105.24 22.1563 105.1 22.1563H99.1089C98.9682 22.1563 98.8577 22.056 98.8577 21.9257V15.6598C98.8577 15.2788 98.5159 14.968 98.1038 14.968H94.6963C94.2842 14.968 93.9424 15.2788 93.9424 15.6598V33.2845C93.9424 33.6654 94.2842 33.9762 94.6963 33.9762H98.1038C98.5159 33.9762 98.8577 33.6654 98.8577 33.2845V26.1865C98.8577 26.0561 98.9682 25.9559 99.1089 25.9559H105.1C105.24 25.9559 105.351 26.0561 105.351 26.1865V33.2845C105.351 33.6654 105.693 33.9762 106.105 33.9762H109.512C109.924 33.9762 110.266 33.6654 110.266 33.2845V15.6598C110.266 15.2788 109.924 14.968 109.512 14.968H106.105C105.693 14.968 105.351 15.2688 105.351 15.6598Z"
        fill="white" />
</svg>
