<svg
    xmlns="http://www.w3.org/2000/svg"
    width="41"
    height="17"
    viewBox="0 0 41 17">
    <path
        d="M 19.526 2.635 L 19.526 6.718 L 22.044 6.718 C 22.644 6.718 23.14 6.516 23.532 6.113 C 23.935 5.711 24.137 5.231 24.137 4.676 C 24.137 4.132 23.935 3.658 23.532 3.254 C 23.14 2.841 22.644 2.634 22.044 2.634 L 19.526 2.634 L 19.526 2.635 Z M 19.526 8.155 L 19.526 12.891 L 18.022 12.891 L 18.022 1.198 L 22.011 1.198 C 23.025 1.198 23.885 1.535 24.594 2.21 C 25.314 2.885 25.674 3.707 25.674 4.676 C 25.674 5.667 25.314 6.495 24.594 7.158 C 23.897 7.823 23.035 8.154 22.011 8.154 L 19.526 8.154 L 19.526 8.155 Z"
        fill="#ffffff"/>
    <path
        d="M 27.194 10.442 C 27.194 10.834 27.36 11.16 27.693 11.422 C 28.025 11.683 28.415 11.813 28.861 11.813 C 29.494 11.813 30.057 11.579 30.553 11.112 C 31.05 10.643 31.297 10.093 31.297 9.463 C 30.828 9.092 30.174 8.907 29.335 8.907 C 28.724 8.907 28.215 9.055 27.807 9.349 C 27.398 9.643 27.194 10.006 27.194 10.442 M 29.14 4.627 C 30.252 4.627 31.129 4.924 31.773 5.518 C 32.415 6.111 32.737 6.925 32.737 7.959 L 32.737 12.891 L 31.298 12.891 L 31.298 11.781 L 31.233 11.781 C 30.611 12.695 29.783 13.153 28.747 13.153 C 27.865 13.153 27.126 12.891 26.532 12.369 C 25.938 11.846 25.641 11.193 25.641 10.409 C 25.641 9.581 25.954 8.923 26.581 8.433 C 27.208 7.943 28.044 7.698 29.09 7.698 C 29.983 7.698 30.72 7.861 31.297 8.188 L 31.297 7.844 C 31.297 7.322 31.09 6.878 30.676 6.513 C 30.261 6.149 29.777 5.967 29.221 5.967 C 28.381 5.967 27.717 6.32 27.226 7.029 L 25.902 6.195 C 26.632 5.15 27.711 4.627 29.14 4.627"
        fill="#ffffff"/>
    <path
        d="M 40.993 4.889 L 35.973 16.42 L 34.42 16.42 L 36.284 12.385 L 32.981 4.889 L 34.616 4.889 L 37.003 10.638 L 37.036 10.638 L 39.358 4.889 Z"
        fill="#ffffff"/>
    <path
        d="M 13.448 7.134 C 13.448 6.661 13.408 6.205 13.332 5.768 L 6.988 5.768 L 6.988 8.356 L 10.622 8.356 C 10.466 9.199 9.994 9.917 9.278 10.398 L 9.278 12.079 L 11.447 12.079 C 12.716 10.908 13.448 9.179 13.448 7.134"
        fill="#4285f4"/>
    <path
        d="M 6.988 13.701 C 8.804 13.701 10.332 13.105 11.447 12.079 L 9.278 10.398 C 8.675 10.804 7.897 11.041 6.988 11.041 C 5.234 11.041 3.744 9.859 3.212 8.267 L 0.978 8.267 L 0.978 9.998 C 2.085 12.193 4.36 13.701 6.988 13.701"
        fill="#34a853"/>
    <path
        d="M 3.212 8.267 C 3.076 7.861 3.001 7.428 3.001 6.981 C 3.001 6.534 3.076 6.101 3.212 5.695 L 3.212 3.964 L 0.978 3.964 C 0.52 4.871 0.261 5.896 0.261 6.981 C 0.261 8.066 0.52 9.091 0.978 9.998 L 3.212 8.267 Z"
        fill="#fabb05"/>
    <path
        d="M 6.988 2.921 C 7.98 2.921 8.868 3.262 9.569 3.929 L 9.569 3.93 L 11.489 2.012 C 10.323 0.928 8.803 0.261 6.988 0.261 C 4.36 0.261 2.085 1.769 0.978 3.964 L 3.212 5.695 C 3.744 4.103 5.234 2.921 6.988 2.921"
        fill="#e94235"/>
</svg>
