<svg width="99" height="48" viewBox="0 0 99 48" fill="none" xmlns="http://www.w3.org/2000/svg">
    <path
        d="M49.5 48C76.8381 48 99 37.2548 99 24C99 10.7452 76.8381 0 49.5 0C22.1619 0 0 10.7452 0 24C0 37.2548 22.1619 48 49.5 48Z"
        fill="#2D7DE1" />
    <path
        d="M63.5189 37.8865H60.9302C60.6747 37.8865 60.4529 37.7035 60.426 37.4663L59.6124 30.3429C59.5922 30.1667 59.3233 30.1531 59.2829 30.3226L57.4608 37.3036C57.407 37.5138 57.2053 37.6629 56.97 37.6629H54.3141C54.0788 37.6629 53.8771 37.5138 53.8233 37.3036L52.0011 30.3226C51.9541 30.1531 51.6918 30.1667 51.6717 30.3429L50.8581 37.4663C50.8312 37.7035 50.6161 37.8865 50.3538 37.8865H47.7652C47.4626 37.8865 47.2273 37.6358 47.2676 37.3579L48.9889 25.4426C49.0225 25.2121 49.2377 25.0359 49.4865 25.0359H53.0769C53.3055 25.0359 53.5073 25.1783 53.5678 25.3884L55.4773 32.2881C55.5176 32.444 55.7597 32.444 55.8068 32.2881L57.7163 25.3884C57.7768 25.1783 57.9718 25.0359 58.2071 25.0359H61.7976C62.0531 25.0359 62.2615 25.2121 62.2951 25.4426L64.0164 37.3579C64.0635 37.6358 63.8282 37.8865 63.5189 37.8865ZM35.9853 35.7583V38.6999C35.9853 38.9574 35.7566 39.1675 35.481 39.1675H33.6051C33.3294 39.1675 33.1008 38.9574 33.1008 38.6999V38.1983C33.1008 38.0289 32.9529 37.8865 32.7646 37.8865H25.7719C25.5837 37.8865 25.4357 38.0289 25.4357 38.1983V38.6999C25.4357 38.9574 25.2071 39.1675 24.9315 39.1675H23.0555C22.7799 39.1675 22.5513 38.9574 22.5513 38.6999V35.7583C22.5513 35.5008 22.7799 35.2907 23.0555 35.2907H23.8422C23.9162 35.2907 23.9834 35.2432 24.0036 35.1754L26.9082 25.4426C27.0024 25.1918 27.2579 25.0291 27.5403 25.0291H30.9963C31.2787 25.0291 31.5342 25.1918 31.6283 25.4426L34.5329 35.1754C34.5531 35.2432 34.6203 35.2907 34.6943 35.2907H35.481C35.7566 35.2907 35.9853 35.5008 35.9853 35.7583ZM27.4529 35.1009C27.4327 35.1958 27.5066 35.2907 27.6142 35.2907H30.9156C31.0231 35.2907 31.1038 35.1958 31.0769 35.1009L29.4296 28.8857C29.3826 28.7366 29.1472 28.7366 29.1002 28.8857L27.4529 35.1009ZM75.6753 37.8865H73.2884C72.9993 37.8865 72.7371 37.7103 72.6497 37.4528L72.3605 36.2531C72.3404 36.1785 72.2731 36.1311 72.1992 36.1311H68.4204C68.3398 36.1311 68.2725 36.1785 68.2591 36.2531L67.97 37.4528C67.8826 37.7103 67.6203 37.8865 67.3312 37.8865H64.9443C64.5947 37.8865 64.3526 37.568 64.4669 37.263L67.8624 25.4494C67.9565 25.1986 68.212 25.0359 68.4944 25.0359H72.1185C72.4009 25.0359 72.6564 25.1986 72.7505 25.4494L76.146 37.263C76.2737 37.5612 76.025 37.8865 75.6753 37.8865ZM71.4999 33.5352C71.6075 33.5352 71.6882 33.4403 71.6613 33.3454L70.4712 28.8789C70.4241 28.7298 70.1888 28.7298 70.1417 28.8789L68.9516 33.3454C68.9314 33.4403 69.0054 33.5352 69.113 33.5352H71.4999ZM47.1466 31.4612C47.1466 35.3517 44.9883 38.0831 41.3037 38.0831C37.6191 38.0831 35.4608 35.3517 35.4608 31.4612C35.4608 27.5708 37.6191 24.8394 41.3037 24.8394C44.9883 24.8394 47.1466 27.564 47.1466 31.4612ZM43.6637 31.4612C43.6637 29.5228 42.9308 28.3502 41.3037 28.3502C39.6766 28.3502 38.9437 29.5228 38.9437 31.4612C38.9437 33.3997 39.6766 34.5722 41.3037 34.5722C42.9308 34.5722 43.6637 33.3997 43.6637 31.4612ZM58.355 10.1181H61.0647C61.3404 10.1181 61.569 10.3282 61.569 10.5858V22.501C61.569 22.7586 61.3404 22.9687 61.0647 22.9687H58.7854C58.5097 22.9687 58.2811 22.7586 58.2811 22.501V15.6487C58.2811 15.4793 58.0323 15.4319 57.9583 15.581L54.0384 22.6163C53.9241 22.8332 53.6888 22.9687 53.4333 22.9687H51.0598C50.7841 22.9687 50.5555 22.7586 50.5555 22.501V10.5858C50.5555 10.3282 50.7841 10.1181 51.0598 10.1181H53.3392C53.6148 10.1181 53.8434 10.3282 53.8434 10.5858V16.7603C53.8434 16.9297 54.0855 16.9772 54.1662 16.8281L57.7499 10.4705C57.8575 10.2537 58.0928 10.1181 58.355 10.1181ZM34.1026 10.1181H31.6014C31.3526 10.1181 31.0904 10.2469 31.0097 10.4502L29.0397 15.5403C28.9859 15.6826 28.7707 15.6759 28.7236 15.5335L26.767 10.4773C26.6595 10.2537 26.4174 10.1181 26.1552 10.1181H23.7952C23.5464 10.1181 23.385 10.3553 23.4926 10.5654L27.0225 19.302C27.0696 19.4104 27.0696 19.5392 27.0225 19.6476L25.7787 22.5214C25.6711 22.7315 25.8324 22.9687 26.0812 22.9687H28.69C28.9522 22.9687 29.1876 22.8264 29.3019 22.6095L34.3985 10.5722C34.4859 10.3621 34.3581 10.1181 34.1026 10.1181ZM43.6772 17.7498C43.6772 17.5872 43.9192 17.533 43.9999 17.6821L46.5549 22.6095C46.6625 22.8332 46.9046 22.9687 47.1668 22.9687H49.7756C50.0244 22.9687 50.1857 22.7315 50.0782 22.5214L46.6558 15.703C46.5818 15.5606 46.5886 15.398 46.676 15.2624L49.2848 10.5722C49.4058 10.3621 49.2444 10.1113 48.9889 10.1113H46.6289C46.3801 10.1113 46.1515 10.2401 46.0372 10.4434L43.9932 14.2729C43.9125 14.4152 43.6772 14.3678 43.6772 14.1983V10.8027C43.6772 10.5451 43.4486 10.335 43.1729 10.335H40.8599C40.5843 10.335 40.3557 10.5451 40.3557 10.8027L40.3893 14.1983C40.3893 14.361 40.154 14.4152 40.0733 14.2729L38.0293 10.4434C37.915 10.2401 37.6864 10.1113 37.4376 10.1113H35.0776C34.8221 10.1113 34.6607 10.3621 34.7817 10.5722L37.3905 15.2624C37.4779 15.398 37.4846 15.5606 37.4107 15.703L33.9883 22.5214C33.8807 22.7315 34.0421 22.9687 34.2909 22.9687H36.8997C37.1619 22.9687 37.3972 22.8264 37.5115 22.6095L40.0665 17.6821C40.1472 17.533 40.3893 17.5872 40.3893 17.7498L40.3557 22.2774C40.3557 22.5349 40.5843 22.745 40.8599 22.745H43.1662C43.4419 22.745 43.6705 22.5349 43.6705 22.2774V17.7498H43.6772ZM70.4712 10.5858V14.8219C70.4712 14.91 70.3972 14.9778 70.3031 14.9778H66.2958C66.2016 14.9778 66.1277 14.91 66.1277 14.8219V10.5858C66.1277 10.3282 65.8991 10.1181 65.6234 10.1181H63.344C63.0684 10.1181 62.8398 10.3282 62.8398 10.5858V22.501C62.8398 22.7586 63.0684 22.9687 63.344 22.9687H65.6234C65.8991 22.9687 66.1277 22.7586 66.1277 22.501V17.7024C66.1277 17.6143 66.2016 17.5465 66.2958 17.5465H70.3031C70.3972 17.5465 70.4712 17.6143 70.4712 17.7024V22.501C70.4712 22.7586 70.6998 22.9687 70.9755 22.9687H73.2548C73.5305 22.9687 73.7591 22.7586 73.7591 22.501V10.5858C73.7591 10.3282 73.5305 10.1181 73.2548 10.1181H70.9755C70.6998 10.1181 70.4712 10.3214 70.4712 10.5858Z"
        fill="white" />
</svg>
