<svg width="24" height="24" viewBox="0 0 24 24" fill="none" xmlns="http://www.w3.org/2000/svg">
    <path fill-rule="evenodd" clip-rule="evenodd"
        d="M9.01095 6C9.14492 4.26444 10.4888 3 12 3C13.5112 3 14.8551 4.26444 14.989 6H9.01095ZM7 8V10C7 10.5523 7.44772 11 8 11C8.55228 11 9 10.5523 9 10V8H15V10C15 10.5523 15.4477 11 16 11C16.5523 11 17 10.5523 17 10V8H19.0234L19.7824 18.9307C19.8226 19.5089 19.3644 20 18.7848 20H5.21597C4.63641 20 4.17822 19.5089 4.21837 18.9307L4.97745 8H7ZM7.00729 6C7.14668 3.27208 9.26952 1 12 1C14.7305 1 16.8533 3.27208 16.9927 6H19.0234C20.0742 6 20.9458 6.81317 21.0186 7.86144L21.7776 18.7922C21.8981 20.5267 20.5235 22 18.7848 22H5.21597C3.47729 22 2.10272 20.5267 2.22317 18.7922L2.98225 7.86144C3.05505 6.81317 3.92665 6 4.97745 6H7.00729Z"
        fill="#2D7DE1" />
</svg>
