<svg width="24" height="24" viewBox="0 0 24 24" fill="none" xmlns="http://www.w3.org/2000/svg">
    <path fill-rule="evenodd" clip-rule="evenodd"
        d="M18.201 17.0549C19.3256 15.677 20 13.9173 20 12C20 7.58172 16.4183 4 12 4C7.58172 4 4 7.58172 4 12C4 13.9173 4.67445 15.677 5.79903 17.0549C6.76551 15.3488 8.17313 14.0071 9.86404 13.3826C8.74381 12.6737 8 11.4237 8 10C8 7.79086 9.79086 6 12 6C14.2091 6 16 7.79086 16 10C16 11.4237 15.2562 12.6737 14.136 13.3826C15.8269 14.0071 17.2345 15.3488 18.201 17.0549ZM16.694 18.4789C15.623 16.2831 13.8442 15 12 15C10.1558 15 8.37704 16.2831 7.30604 18.4789C8.62447 19.4357 10.2463 20 12 20C13.7537 20 15.3755 19.4357 16.694 18.4789ZM12 22C17.5228 22 22 17.5228 22 12C22 6.47715 17.5228 2 12 2C6.47715 2 2 6.47715 2 12C2 17.5228 6.47715 22 12 22ZM12 12C13.1046 12 14 11.1046 14 10C14 8.89543 13.1046 8 12 8C10.8954 8 10 8.89543 10 10C10 11.1046 10.8954 12 12 12Z"
        fill="#2D7DE1" />
</svg>
