<svg width="24" height="24" viewBox="0 0 24 24" fill="none" xmlns="http://www.w3.org/2000/svg">
    <path fill-rule="evenodd" clip-rule="evenodd"
        d="M7.5145 2.14266C7.98808 2.42681 8.14164 3.04107 7.85749 3.51465L7.16619 4.66682L7.85749 5.81899C7.95074 5.9744 8 6.15224 8 6.33348V7.00015C8 7.55244 7.55228 8.00015 7 8.00015C6.44772 8.00015 6 7.55244 6 7.00015V6.61047L5.14251 5.18131C4.9525 4.86463 4.9525 4.469 5.14251 4.15232L6.14251 2.48566C6.42666 2.01208 7.04092 1.85851 7.5145 2.14266Z"
        fill="black" fill-opacity="0.3" />
    <path fill-rule="evenodd" clip-rule="evenodd"
        d="M12.5145 2.14266C12.9881 2.42681 13.1416 3.04107 12.8575 3.51465L12.1662 4.66682L12.8575 5.81899C12.9507 5.9744 13 6.15224 13 6.33348V7.00015C13 7.55244 12.5523 8.00015 12 8.00015C11.4477 8.00015 11 7.55244 11 7.00015V6.61047L10.1425 5.18131C9.9525 4.86463 9.9525 4.469 10.1425 4.15232L11.1425 2.48566C11.4267 2.01208 12.0409 1.85851 12.5145 2.14266Z"
        fill="black" fill-opacity="0.3" />
    <path fill-rule="evenodd" clip-rule="evenodd"
        d="M17.5145 2.14266C17.9881 2.42681 18.1416 3.04107 17.8575 3.51465L17.1662 4.66682L17.8575 5.81899C17.9507 5.9744 18 6.15224 18 6.33348V7.00015C18 7.55244 17.5523 8.00015 17 8.00015C16.4477 8.00015 16 7.55244 16 7.00015V6.61047L15.1425 5.18131C14.9525 4.86463 14.9525 4.469 15.1425 4.15232L16.1425 2.48566C16.4267 2.01208 17.0409 1.85851 17.5145 2.14266Z"
        fill="black" fill-opacity="0.3" />
    <path fill-rule="evenodd" clip-rule="evenodd"
        d="M14.0001 18.8C14.0001 17.7662 14.788 16.9027 15.8175 16.8084C16.704 16.7271 19.1873 15.8165 19.8409 12H4.15931C4.81293 15.8165 7.29626 16.7271 8.18268 16.8084C9.21219 16.9027 10.0001 17.7662 10.0001 18.8V19H14.0001V18.8ZM8.00011 18.8V20C8.00011 20.5523 8.44782 21 9.00011 21H15.0001C15.5524 21 16.0001 20.5523 16.0001 20V18.8C17.8951 18.6263 21.5856 16.8067 21.9679 11.0021C22.0042 10.451 21.5524 10 21.0001 10H3.00011C2.44782 10 1.99602 10.451 2.03232 11.0021C2.41462 16.8067 6.10511 18.6263 8.00011 18.8Z"
        fill="black" fill-opacity="0.3" />
</svg>
