<svg width="38" height="50" viewBox="0 0 38 50" fill="none" xmlns="http://www.w3.org/2000/svg">
<path fill-rule="evenodd" clip-rule="evenodd" d="M6 2H4C2.89542 2 2 2.89545 2 4V41.5351C2.58835 41.1948 3.27142 41 4 41H6V2ZM8 2V41H36V2H8ZM2 46V45C2 43.8954 2.89542 43 4 43H32V48H4C2.89542 48 2 47.1046 2 46ZM36 48H34V43H36V48ZM0 4V45V46C0 48.2092 1.79086 50 4 50H36C37.1046 50 38 49.1046 38 48V43V2C38 0.895447 37.1046 0 36 0H4C1.79086 0 0 1.79083 0 4Z" fill="#999999"/>
<path d="M14.0588 29C13.4741 29 13 28.5523 13 28C13 27.4477 13.4741 27 14.0588 27L29.9412 27C30.5259 27 31 27.4477 31 28C31 28.5523 30.5259 29 29.9412 29L14.0588 29Z" fill="#999999"/>
<path d="M13.0526 33C12.4713 33 12 32.5523 12 32C12 31.4477 12.4713 31 13.0526 31L30.9474 31C31.5287 31 32 31.4477 32 32C32 32.5523 31.5287 33 30.9474 33L13.0526 33Z" fill="#999999"/>
<path d="M19.1429 37C18.5117 37 18 36.5523 18 36C18 35.4477 18.5117 35 19.1429 35L24.8571 35C25.4883 35 26 35.4477 26 36C26 36.5523 25.4883 37 24.8571 37L19.1429 37Z" fill="#999999"/>
<path fill-rule="evenodd" clip-rule="evenodd" d="M19 13.0049L19 13.0047L19.0004 12.9884C19.001 12.9709 19.0023 12.9406 19.0053 12.8994C19.0112 12.8166 19.0235 12.6918 19.0489 12.5394C19.1005 12.2299 19.2018 11.8325 19.3944 11.4472C19.5851 11.0658 19.8554 10.7149 20.2422 10.4571C20.6227 10.2034 21.175 10 22 10C22.825 10 23.3773 10.2034 23.7578 10.4571C24.1446 10.7149 24.4149 11.0658 24.6056 11.4472C24.7982 11.8325 24.8995 12.2299 24.9511 12.5394C24.9765 12.6918 24.9888 12.8166 24.9947 12.8994C24.9977 12.9406 24.999 12.9709 24.9996 12.9884L25 13.0047L25 13.0049V13.0049C25.0026 13.5549 25.4493 14 26 14C26.5523 14 27 13.5523 27 13H26C27 13 27 12.9995 27 12.999L27 12.9979L27 12.9953L27 12.9892L26.9997 12.9724C26.9995 12.9593 26.9992 12.9423 26.9985 12.9218C26.9971 12.8807 26.9945 12.825 26.9896 12.7569C26.9799 12.6209 26.961 12.4332 26.9239 12.2106C26.9135 12.1483 26.9016 12.0828 26.888 12.0144C28.0759 12.1453 29 13.1522 29 14.375C29 15.6867 27.9367 16.75 26.625 16.75H26.2C25.5373 16.75 25 17.2873 25 17.95V19H19V17.95C19 17.2873 18.4627 16.75 17.8 16.75H17.375C16.0633 16.75 15 15.6867 15 14.375C15 13.1522 15.9241 12.1453 17.112 12.0144C17.0984 12.0828 17.0865 12.1483 17.0761 12.2106C17.039 12.4332 17.0201 12.6209 17.0104 12.7569C17.0055 12.825 17.0029 12.8807 17.0015 12.9218C17.0008 12.9423 17.0005 12.9593 17.0003 12.9724L17 12.9892L17 12.9953L17 12.9979L17 12.999C17 12.9995 17 13 18 13H17C17 13.5523 17.4477 14 18 14C18.5507 14 18.9974 13.5549 19 13.0049ZM17.9275 10H17.375C14.9588 10 13 11.9588 13 14.375C13 16.6649 14.7593 18.5439 17 18.7342V22C17 23.1046 17.8954 24 19 24H25C26.1046 24 27 23.1046 27 22V18.7342C29.2407 18.5439 31 16.6649 31 14.375C31 11.9588 29.0412 10 26.625 10H26.0725C25.7783 9.56347 25.3868 9.13935 24.8672 8.79295C24.1227 8.29662 23.175 8 22 8C20.825 8 19.8773 8.29662 19.1328 8.79295C18.6132 9.13935 18.2217 9.56347 17.9275 10ZM19 13.005L19 13.0049L19 13.005ZM19 22V21H25V22H19Z" fill="#999999"/>
</svg>
