<svg width="24" height="24" viewBox="0 0 24 24" fill="none" xmlns="http://www.w3.org/2000/svg">
    <circle cx="8" cy="8" r="0.5" stroke="#2D7DE1" />
    <circle cx="8" cy="12" r="0.5" stroke="#2D7DE1" />
    <circle cx="8" cy="16" r="0.5" stroke="#2D7DE1" />
    <rect x="10.5" y="7.5" width="4" height="1" rx="0.5" stroke="#2D7DE1" />
    <rect x="10.5" y="11.5" width="6" height="1" rx="0.5" stroke="#2D7DE1" />
    <rect x="10.5" y="15.5" width="4" height="1" rx="0.5" stroke="#2D7DE1" />
    <path fill-rule="evenodd" clip-rule="evenodd"
        d="M7 2C7 1.44772 7.44772 1 8 1C8.55228 1 9 1.44772 9 2H11C11 1.44772 11.4477 1 12 1C12.5523 1 13 1.44772 13 2H15C15 1.44772 15.4477 1 16 1C16.5523 1 17 1.44772 17 2H19C20.1046 2 21 2.89543 21 4V20C21 21.1046 20.1046 22 19 22H5C3.89543 22 3 21.1046 3 20V4C3 2.89543 3.89543 2 5 2H7ZM11 4H9C9 4.55228 8.55228 5 8 5C7.44772 5 7 4.55228 7 4H5L5 20H19V4H17C17 4.55228 16.5523 5 16 5C15.4477 5 15 4.55228 15 4H13C13 4.55228 12.5523 5 12 5C11.4477 5 11 4.55228 11 4Z"
        fill="#2D7DE1" />
</svg>
