<svg width="14" height="13" viewBox="0 0 14 13" fill="none" xmlns="http://www.w3.org/2000/svg">
<path d="M10.7002 10.7039C10.3546 11.1694 10.0089 11.6348 9.66493 12.1003C9.49038 11.9814 9.30899 11.8576 9.12075 11.7289C9.55883 11.138 9.99692 10.5471 10.4367 9.95617C10.5257 10.2104 10.6147 10.4596 10.7002 10.7039ZM11.2838 12.305C11.2769 12.2884 11.2718 12.2719 11.265 12.2538C11.2427 12.2703 11.2222 12.2868 11.1999 12.3033C11.0185 12.4535 10.8508 12.6169 10.6951 12.7919C10.7088 12.8018 10.7242 12.8117 10.7379 12.8199C10.8594 12.7292 10.9809 12.6384 11.1041 12.5492C11.1623 12.4667 11.2205 12.3842 11.2838 12.305ZM10.8132 11.0191C10.4692 11.407 10.1218 11.7916 9.76932 12.1713C9.96441 12.3033 10.1475 12.4271 10.3203 12.5426C10.5719 12.2703 10.82 11.9946 11.0665 11.7157C10.9843 11.4929 10.9005 11.2585 10.8132 11.0191ZM7.76543 2.73318C7.76029 2.73813 7.75516 2.74309 7.75174 2.74804C7.73633 2.7728 7.72093 2.79756 7.70553 2.82232C7.72435 2.7926 7.74489 2.76289 7.76543 2.73318ZM0.56441 4.89215C0.555853 4.9004 0.547297 4.90866 0.53874 4.91856C0.567832 4.91031 0.596923 4.90206 0.626015 4.89215H0.56441ZM0.626015 4.89215C0.596923 4.90206 0.567832 4.91031 0.53874 4.91856C0.383015 5.07702 0.227289 5.23713 0.0732753 5.39723C0.090388 5.41704 0.10579 5.4352 0.129747 5.4517C0.273494 5.55404 0.434353 5.66793 0.610613 5.79173C0.90324 5.49132 1.19416 5.19091 1.48849 4.89215H0.626015ZM11.1999 12.3033C11.2205 12.2851 11.241 12.267 11.2633 12.2505C11.2239 12.1432 11.1828 12.031 11.14 11.9187C10.9005 12.1481 10.6694 12.3842 10.4436 12.6268C10.5069 12.6697 10.5685 12.711 10.6301 12.7506C10.6848 12.7027 10.743 12.6565 10.7995 12.612C10.933 12.508 11.0665 12.4056 11.1999 12.3033ZM1.55352 4.89215C1.27287 5.21567 0.992226 5.53918 0.711578 5.8627C0.940888 6.02446 1.19416 6.20272 1.46454 6.39419C1.91973 5.89406 2.37151 5.39063 2.82671 4.8905L1.55352 4.89215ZM11.265 12.2538C11.265 12.2521 11.265 12.2521 11.2633 12.2505C11.241 12.267 11.2205 12.2851 11.1999 12.3033C11.2205 12.2868 11.2427 12.2703 11.265 12.2538ZM11.3266 12.4188C11.2136 12.5179 11.1007 12.6169 10.9877 12.716C11.0117 12.6796 11.0374 12.645 11.0613 12.6103C11.01 12.6648 10.9621 12.7226 10.9193 12.7853C11.063 12.7027 11.2051 12.6202 11.3488 12.5377C11.2051 12.6681 11.0699 12.8067 10.9398 12.9503C10.9655 12.9635 10.9912 12.9751 11.0168 12.9817C11.0476 12.9668 11.0784 12.9487 11.1075 12.9305C11.1212 12.919 11.1349 12.9074 11.1486 12.8959C11.1469 12.8959 11.1452 12.8975 11.1435 12.8975C11.1452 12.8975 11.1469 12.8959 11.1486 12.8959C11.2188 12.8348 11.2889 12.7737 11.3591 12.711C11.3471 12.7341 11.3351 12.7572 11.3214 12.7803C11.3488 12.7523 11.3779 12.7242 11.407 12.6978C11.4087 12.6615 11.4019 12.6235 11.3882 12.5839C11.3676 12.5311 11.3471 12.4733 11.3266 12.4188ZM13.9996 5.17441C13.9927 5.0077 13.8353 4.8839 13.6642 4.87895C13.6573 4.87895 13.6539 4.87895 13.6539 4.87895H13.363C13.1576 5.17275 12.9574 5.46986 12.7606 5.76862C12.569 6.04426 12.3773 6.31991 12.1839 6.59391L13.8661 5.44015C13.9636 5.37413 14.0047 5.27344 13.9996 5.17441ZM11.0442 12.9866C11.0647 12.9685 11.087 12.9487 11.1075 12.9305C11.0767 12.9487 11.0476 12.9668 11.0168 12.9817C11.0254 12.985 11.0339 12.985 11.0442 12.9866ZM7.90404 2.52191C7.89377 2.4922 7.8835 2.46248 7.87495 2.43277C7.86126 2.50375 7.83901 2.57308 7.80992 2.64075C7.84072 2.60114 7.87152 2.56152 7.90404 2.52191ZM11.3488 12.5377C11.2051 12.6202 11.063 12.7027 10.9193 12.7853C10.9621 12.7242 11.01 12.6664 11.0613 12.6103C11.075 12.5905 11.0904 12.569 11.1041 12.5492C10.9826 12.64 10.8611 12.7308 10.7379 12.8199C10.8012 12.8612 10.8611 12.9008 10.9176 12.9388C10.9244 12.9437 10.933 12.947 10.9398 12.9503C11.0682 12.8067 11.2034 12.6664 11.3488 12.5377ZM6.28518 1.13046C6.32454 1.08755 6.3639 1.04628 6.40325 1.00336C6.43064 0.973651 6.45802 0.943944 6.48711 0.914234C6.59321 0.727717 6.68048 0.532946 6.74722 0.329923C6.57609 0.589066 6.42379 0.856463 6.28518 1.13046ZM7.24178 2.29578C5.8334 4.0256 4.42332 5.75541 3.01495 7.48358C3.14842 7.57766 3.28361 7.67175 3.42051 7.76913C3.53859 7.85166 3.62416 7.96555 3.67549 8.09265C5.15232 6.47342 6.64454 4.8674 8.15388 3.27623C8.07345 3.03524 7.99473 2.79921 7.91944 2.57307C7.89035 2.60444 7.85954 2.6358 7.82874 2.66716C7.72778 2.84872 7.64735 3.04184 7.59088 3.24156C7.64564 3.04184 7.72778 2.85038 7.82874 2.66716C7.8065 2.69027 7.78596 2.71173 7.76371 2.73483C7.74318 2.76455 7.72264 2.79425 7.70211 2.82396C7.71922 2.80085 7.73462 2.77445 7.74831 2.74969C7.67473 2.82727 7.60114 2.90319 7.52756 2.98077C7.61997 2.86688 7.71238 2.75464 7.80478 2.64075C7.83388 2.57473 7.85612 2.5054 7.86981 2.43277C7.86981 2.43112 7.8681 2.42947 7.8681 2.42782C7.762 2.52851 7.67986 2.65395 7.63195 2.79095C7.67986 2.65395 7.762 2.52851 7.8681 2.42782C7.7158 1.96896 7.57547 1.54476 7.45055 1.16677C6.90808 1.69991 6.36903 2.23635 5.83683 2.7794C6.3485 2.16373 6.86188 1.54806 7.37355 0.932388C7.28627 0.664992 7.20584 0.424006 7.13739 0.216032C7.04327 -0.06952 6.62743 -0.072821 6.52818 0.211081C6.4255 0.503235 6.30229 0.859762 6.16197 1.26251C6.20133 1.21959 6.2424 1.17502 6.28175 1.13211C6.42037 0.85811 6.57438 0.590715 6.74209 0.333223C6.67535 0.536245 6.58807 0.731016 6.48197 0.917533C6.51278 0.884521 6.54529 0.851507 6.57609 0.816844C6.65652 0.702954 6.73866 0.590714 6.81909 0.476823C6.76433 0.561003 6.71128 0.645183 6.65652 0.729363C6.66508 0.72111 6.67192 0.712858 6.68048 0.704605C6.76433 0.580811 6.84647 0.457017 6.93033 0.333223C6.88754 0.440511 6.82423 0.537896 6.7438 0.622076C6.82423 0.537896 6.88754 0.440511 6.93033 0.333223C6.84647 0.457017 6.76433 0.580811 6.68048 0.704605C6.7592 0.622076 6.83621 0.537899 6.91493 0.45537C6.79856 0.59567 6.68219 0.735968 6.56583 0.876268C6.55214 0.897726 6.53673 0.919181 6.52304 0.940639C6.53502 0.922482 6.54529 0.90598 6.55727 0.887824C6.48197 0.978606 6.40497 1.07104 6.32967 1.16182C6.29031 1.21629 6.25095 1.27241 6.21159 1.32688C6.25266 1.27406 6.29202 1.21794 6.32967 1.16182C6.28004 1.22289 6.22871 1.28231 6.17908 1.34338C6.14314 1.41766 6.10892 1.49194 6.07469 1.56787C6.10721 1.49194 6.14314 1.41766 6.17908 1.34338C6.15341 1.37474 6.12774 1.40445 6.10207 1.43582C5.81116 2.27432 5.45692 3.29934 5.08216 4.40028C4.9829 4.69243 4.69883 4.8905 4.38054 4.8905L3.22714 4.89215C2.74628 5.46986 2.26712 6.04757 1.78625 6.62363C2.0361 6.79859 2.29963 6.98345 2.57173 7.17657C4.09989 5.51938 5.64859 3.88695 7.24178 2.29578ZM10.0996 8.99718C9.55883 9.60129 9.01978 10.2054 8.47902 10.8112L10.0243 8.78425C10.0157 8.75949 10.0072 8.73638 9.99863 8.71162C9.89595 8.41451 10.0072 8.08604 10.2707 7.90448L11.1554 7.29872L12.9985 4.8806L11.7373 4.88225C10.6164 6.0096 9.51263 7.15346 8.43111 8.31548C8.58341 8.13557 8.73571 7.95565 8.88973 7.77573C9.706 6.81179 10.524 5.84784 11.3403 4.88225L9.91991 4.8839C8.73914 6.08883 7.55836 7.29541 6.3793 8.50035L9.32781 4.8839H9.23198C8.91026 4.8839 8.62619 4.68418 8.52694 4.39038C8.51838 4.36562 8.51154 4.34251 8.50298 4.31775L6.79343 6.13835C7.34274 5.47151 7.89377 4.80632 8.44309 4.13948C8.35924 3.89024 8.27709 3.64431 8.19838 3.40662C7.46082 4.29959 6.72326 5.19256 5.98742 6.08553C5.16772 7.07919 4.34802 8.07119 3.52833 9.06484C3.26137 9.89014 3.01494 10.6676 2.80959 11.346L5.88132 8.07449C4.78097 9.42467 3.68063 10.7732 2.58028 12.1234C2.52895 12.3 2.48274 12.4667 2.44167 12.6202C2.36809 12.8942 2.68809 13.1071 2.92767 12.9421L3.00468 12.8893C4.72108 11.1363 6.43577 9.38506 8.15217 7.63213C8.09912 7.69321 8.04778 7.75593 7.99473 7.817C6.99022 9.00212 5.98571 10.1872 4.98119 11.3724C4.87167 11.5011 4.76044 11.6299 4.65092 11.7586L6.48369 10.5009C6.73695 10.3275 7.07578 10.3259 7.33076 10.4959C8.3541 9.35865 9.39626 8.23625 10.4572 7.132C9.5383 8.33859 8.61935 9.54352 7.7004 10.7501C8.06832 11.0043 8.42426 11.2502 8.76309 11.483C9.29188 10.8904 9.82066 10.2995 10.3494 9.70693C10.2656 9.47419 10.1834 9.23651 10.0996 8.99718ZM11.1999 12.3033C11.0665 12.4056 10.933 12.508 10.7995 12.6103C10.7413 12.6549 10.6831 12.6994 10.6301 12.749C10.6386 12.7539 10.6455 12.7589 10.654 12.7638C10.6729 12.744 10.6917 12.7242 10.7105 12.706C10.6968 12.7292 10.6848 12.7523 10.6712 12.7754C10.6797 12.7803 10.6883 12.7869 10.6951 12.7919C10.8508 12.6169 11.0185 12.4535 11.1999 12.3033ZM11.2975 12.8232C11.33 12.8084 11.3625 12.7919 11.3933 12.777C11.4019 12.7523 11.4053 12.7259 11.4053 12.6994C11.3779 12.7275 11.3488 12.7572 11.318 12.7836C11.3129 12.7952 11.306 12.81 11.2975 12.8232ZM6.57952 0.815197C6.6069 0.787137 6.63428 0.757423 6.66166 0.729363C6.71642 0.645183 6.76947 0.561003 6.82423 0.476823C6.74209 0.589063 6.65995 0.702957 6.57952 0.815197ZM11.3197 12.782C11.3505 12.7556 11.3779 12.7275 11.407 12.6978C11.3762 12.7242 11.3488 12.7523 11.3197 12.782C11.3197 12.7803 11.3197 12.782 11.3197 12.782ZM6.21331 1.32523C6.25438 1.27241 6.29373 1.21629 6.33138 1.16017C6.29202 1.21629 6.25266 1.27076 6.21331 1.32523ZM6.56925 0.876268C6.56583 0.879569 6.56412 0.88287 6.56069 0.886171C6.54871 0.904328 6.53845 0.920835 6.52647 0.938991C6.54016 0.917534 6.55385 0.896075 6.56925 0.876268ZM11.2256 12.9619C11.2769 12.9388 11.3197 12.9041 11.3522 12.8596C11.3163 12.8893 11.2769 12.9157 11.2376 12.9388C11.2342 12.9454 11.229 12.9536 11.2256 12.9619ZM11.2461 12.9206C11.2427 12.9256 11.241 12.9322 11.2376 12.9371C11.2787 12.914 11.3163 12.8876 11.3522 12.8579C11.3711 12.8331 11.3848 12.8051 11.3933 12.7754C11.3608 12.7902 11.3283 12.8067 11.2975 12.8216C11.2804 12.8563 11.2615 12.8893 11.2461 12.9206ZM0.311141 4.8938C0.0766977 4.89876 -0.049936 5.12324 0.0185148 5.30645C0.0595852 5.25198 0.288895 4.92847 0.311141 4.8938Z" fill="#E8A84F"/>
</svg>
