<svg width="18" height="15" viewBox="0 0 18 15" fill="none" xmlns="http://www.w3.org/2000/svg">
<path fill-rule="evenodd" clip-rule="evenodd" d="M11.989 0.0166163C11.9282 0.0322255 11.8103 0.0849896 11.7271 0.133878C11.6439 0.182766 11.5426 0.268005 11.5019 0.323284C11.4612 0.378562 11.3964 0.486186 11.3578 0.562416C11.3192 0.638647 11.27 0.784298 11.2484 0.886055C11.2258 0.992701 11.2092 1.41607 11.2092 1.88522V2.69935L10.8687 2.72323C10.6814 2.73633 10.3083 2.77851 10.0394 2.81689C9.77048 2.8553 9.33835 2.93464 9.07907 2.99323C8.81979 3.05179 8.35622 3.18274 8.04893 3.28419C7.74163 3.38566 7.30164 3.54993 7.07117 3.64924C6.84069 3.74855 6.48755 3.91764 6.28637 4.02498C6.08523 4.13229 5.75681 4.32044 5.55658 4.44301C5.35635 4.56561 5.03379 4.78194 4.83981 4.92372C4.6458 5.06553 4.3378 5.30683 4.15534 5.45998C3.97289 5.61311 3.60277 5.96426 3.33284 6.24031C3.06291 6.51632 2.70442 6.91503 2.53621 7.1263C2.36796 7.33756 2.0996 7.70684 1.93984 7.94692C1.78005 8.18699 1.53763 8.58784 1.40113 8.83769C1.26463 9.08755 1.06824 9.48825 0.964736 9.72815C0.861233 9.96805 0.70535 10.3696 0.618364 10.6206C0.531343 10.8715 0.405282 11.2958 0.338201 11.5634C0.271119 11.831 0.183854 12.2543 0.144255 12.504C0.104656 12.7537 0.055977 13.1207 0.0360377 13.3196C0.0161333 13.5185 -6.96151e-05 13.8956 2.24931e-07 14.1577C0.000104985 14.5738 0.00904451 14.6487 0.0705387 14.7496C0.111221 14.8163 0.203409 14.8935 0.288684 14.9322C0.369908 14.9691 0.471386 14.9996 0.514233 15C0.557044 15.0004 0.654925 14.9756 0.731714 14.9449C0.839163 14.9019 0.94305 14.7993 1.18239 14.4997C1.35343 14.2855 1.65144 13.9352 1.84462 13.7212C2.03779 13.5071 2.37641 13.1671 2.59718 12.9655C2.81791 12.764 3.16843 12.4621 3.37614 12.2948C3.58384 12.1274 3.99733 11.8294 4.29502 11.6324C4.59272 11.4355 5.00009 11.1832 5.20033 11.0718C5.40056 10.9605 5.75412 10.7796 5.98603 10.6698C6.21793 10.56 6.63962 10.3812 6.92307 10.2723C7.20655 10.1635 7.68576 10.0035 7.98799 9.91679C8.29022 9.83005 8.76542 9.71328 9.04397 9.65727C9.32256 9.60129 9.73906 9.53117 9.96953 9.50142C10.2 9.4717 10.5721 9.43566 10.7964 9.42135L11.2042 9.3953L11.2165 10.3036C11.2279 11.1481 11.2343 11.2258 11.3075 11.4091C11.3507 11.5176 11.4479 11.6765 11.5233 11.7622C11.6063 11.8565 11.7329 11.9492 11.8437 11.9968C11.9956 12.0622 12.0717 12.073 12.2911 12.0603C12.5048 12.048 12.5987 12.0225 12.7815 11.9273C12.9779 11.825 13.2967 11.5209 15.2134 9.60761C16.7627 8.061 17.4607 7.34043 17.5588 7.18647C17.6357 7.06589 17.7331 6.86946 17.7753 6.74997C17.8308 6.59303 17.8568 6.42105 17.8691 6.13108C17.8822 5.82322 17.8724 5.67652 17.8272 5.50252C17.7948 5.37768 17.712 5.16554 17.6432 5.0311C17.5293 4.80831 17.3168 4.58513 15.2454 2.51245C13.1782 0.443898 12.9521 0.228371 12.7457 0.129129C12.5972 0.057787 12.4462 0.0145559 12.3092 0.00411485C12.1939 -0.00461515 12.0499 0.00100703 11.989 0.0166163Z" fill="white"/>
</svg>
