<?xml version="1.0" encoding="UTF-8"?>
<!-- Generated by Pixelmator Pro 2.4.2 -->
<svg width="20" height="18" viewBox="0 0 20 18" xmlns="http://www.w3.org/2000/svg" xmlns:xlink="http://www.w3.org/1999/xlink">
    <g id="-Product-Icons">
        <g id="icfluentshare24filled">
            <path id="-Color" fill="#212121" stroke="none" d="M 4.746704 1 L 8.210909 1 C 8.625122 1 8.960909 1.335787 8.960909 1.75 C 8.960909 2.129696 8.678755 2.443491 8.312679 2.493153 L 8.210909 2.5 L 4.746704 2.5 C 3.55584 2.5 2.581059 3.425161 2.501895 4.595951 L 2.496704 4.75 L 2.496704 14.25 C 2.496704 15.440865 3.421865 16.415646 4.592655 16.49481 L 4.746704 16.5 L 14.247437 16.5 C 15.438301 16.5 16.413082 15.574839 16.492247 14.404049 L 16.497437 14.25 L 16.497437 13.752218 C 16.497437 13.338005 16.833223 13.002218 17.247437 13.002218 C 17.627132 13.002218 17.940928 13.284372 17.990591 13.650448 L 17.997437 13.752218 L 17.997437 14.25 C 17.997437 16.254259 16.425076 17.891273 14.446596 17.994802 L 14.247437 18 L 4.746704 18 C 2.742445 18 1.10543 16.427639 1.001902 14.449158 L 0.996704 14.25 L 0.996704 4.75 C 0.996704 2.745741 2.569065 1.108727 4.547545 1.005198 L 4.746704 1 L 8.210909 1 L 4.746704 1 Z M 12.500697 3.544306 L 12.500697 0.75 C 12.500697 0.12603 13.20748 -0.210052 13.687673 0.139801 L 13.76987 0.208742 L 19.764471 5.958742 C 20.044231 6.227087 20.069696 6.658113 19.840843 6.956074 L 19.764559 7.041174 L 13.769958 12.793026 C 13.319682 13.225067 12.587778 12.947674 12.507846 12.358904 L 12.500697 12.251852 L 12.500697 9.449984 L 12.179938 9.443768 C 9.522406 9.435905 7.250845 10.526919 5.315069 12.745002 C 4.819458 13.312891 3.889798 12.876896 4.009521 12.132723 C 4.836514 6.992333 7.60859 4.088278 12.198762 3.574429 L 12.500697 3.544306 L 12.500697 0.75 L 12.500697 3.544306 Z"/>
        </g>
    </g>
</svg>
