<svg width="16" height="15" viewBox="0 0 16 15" fill="none" xmlns="http://www.w3.org/2000/svg">
<path fill-rule="evenodd" clip-rule="evenodd" d="M7.30747 0.0747558L7.15922 0.149512L6.11263 2.255C5.53701 3.41302 5.05017 4.37737 5.03077 4.398C5.01137 4.41863 3.97226 4.58266 2.72165 4.76251C0.935481 5.0194 0.415745 5.10492 0.298296 5.16121C0.186494 5.21483 0.129946 5.27028 0.0740284 5.38116C0.0328961 5.46269 -0.000395153 5.57482 3.54411e-06 5.63034C0.000402242 5.68586 0.0286433 5.79108 0.0627652 5.86418C0.106057 5.95694 0.626557 6.48362 1.78663 7.60848C2.83826 8.62815 3.4496 9.24427 3.45146 9.28633C3.45309 9.32288 3.28251 10.3535 3.07243 11.5767C2.86235 12.7998 2.69048 13.8508 2.69048 13.9121C2.69048 13.9734 2.71992 14.0812 2.7559 14.1517C2.79188 14.2223 2.87488 14.3131 2.94033 14.3535C3.03967 14.4149 3.09346 14.4245 3.2653 14.4115C3.45973 14.3968 3.58629 14.3353 5.52339 13.3139L7.57552 12.2319L9.62666 13.3106C10.7548 13.9038 11.7339 14.4019 11.8024 14.4175C11.871 14.433 11.982 14.4334 12.0491 14.4183C12.1162 14.4031 12.208 14.3631 12.2533 14.3293C12.2985 14.2955 12.3632 14.2163 12.3971 14.1532C12.4309 14.0901 12.4586 13.9843 12.4586 13.918C12.4586 13.8518 12.2866 12.7955 12.0765 11.5708C11.8663 10.3462 11.6944 9.32072 11.6944 9.29208C11.6944 9.26341 12.4489 8.50379 13.3711 7.60399C14.6107 6.39454 15.0612 5.93481 15.0988 5.84065C15.1269 5.77062 15.1498 5.67194 15.1498 5.62137C15.1498 5.57077 15.1162 5.46269 15.075 5.38116C15.0193 5.27065 14.9622 5.2145 14.8508 5.16058C14.7324 5.10336 14.2236 5.01937 12.4101 4.75766C11.1499 4.57582 10.1133 4.41401 10.1065 4.39807C10.0996 4.38212 9.62051 3.41966 9.0419 2.25929L7.98984 0.149512L7.84159 0.0747558C7.76005 0.0336567 7.63988 0 7.57453 0C7.50917 0 7.389 0.0336567 7.30747 0.0747558Z" fill="#FFDD6C"/>
</svg>
