<svg xmlns:xlink="http://www.w3.org/1999/xlink" width="40" height="40" viewBox="0 0 40 40" fill="none" xmlns="http://www.w3.org/2000/svg">
                                    <path d="M20 40C31.0457 40 40 31.0457 40 20C40 8.9543 31.0457 0 20 0C8.9543 0 0 8.9543 0 20C0 31.0457 8.9543 40 20 40Z" fill="#4F9FD5"></path>
                                    <path fill-rule="evenodd" clip-rule="evenodd" d="M19.7175 25.106C18.8741 25.9074 18.0379 26.6954 17.2096 27.4897C16.92 27.7679 16.5944 27.9217 16.1788 27.9003C15.895 27.8856 15.7364 27.7641 15.6493 27.5016C15.0146 25.5803 14.3707 23.6637 13.7395 21.7405C13.6781 21.554 13.5876 21.4633 13.3939 21.4049C11.8988 20.9596 10.4066 20.5038 8.9168 20.0419C8.68757 19.9707 8.45639 19.8776 8.2583 19.7461C7.95217 19.5439 7.9074 19.2139 8.18189 18.9766C8.43546 18.7577 8.73819 18.5669 9.05259 18.4453C10.8801 17.7389 12.7174 17.0553 14.5518 16.3655C19.207 14.6122 23.8622 12.8604 28.5179 11.1072C29.4032 10.7735 30.0836 11.2435 29.9917 12.1773C29.9328 12.7745 29.7741 13.3622 29.6461 13.9519C28.6352 18.6077 27.6234 23.264 26.6072 27.9189C26.3658 29.0241 25.57 29.3127 24.6375 28.6419C23.0757 27.5191 21.5154 26.3925 19.9546 25.2679C19.8801 25.2152 19.8027 25.1644 19.7175 25.106ZM16.2119 26.5198C16.2294 26.515 16.2469 26.5103 16.2644 26.506C16.2742 26.4623 16.2883 26.4196 16.2922 26.3764C16.3924 25.321 16.4985 24.2662 16.5857 23.2089C16.6051 22.9734 16.6879 22.8063 16.8694 22.6478C18.309 21.3921 19.7399 20.1283 21.1737 18.8674C22.7608 17.4711 24.3484 16.0764 25.9297 14.6744C26.0275 14.588 26.0684 14.4409 26.1356 14.3212C25.9867 14.3056 25.827 14.2472 25.6917 14.2813C25.5073 14.3279 25.3325 14.4323 25.168 14.5334C21.6653 16.6854 18.1655 18.8413 14.6603 20.989C14.4622 21.1105 14.4252 21.2136 14.5007 21.4258C14.7591 22.1498 14.9942 22.8804 15.238 23.6096C15.5626 24.58 15.8872 25.5499 16.2119 26.5198Z" fill="#FFFFFF"></path>
                                </svg>