<svg xmlns:xlink="http://www.w3.org/1999/xlink" width="40" height="40" viewBox="0 0 40 40" fill="none" xmlns="http://www.w3.org/2000/svg">
                                    <path d="M20 40C8.95431 40 0 31.0457 0 20C0 8.95431 8.95431 0 20 0C31.0457 0 40 8.95431 40 20C40 31.0457 31.0457 40 20 40ZM15.1752 15.5059C15.2027 15.5232 15.2302 15.5318 15.2485 15.5318C16.1115 15.8431 16.5615 16.4136 16.5707 17.2694C16.5798 18.0993 16.5522 18.9292 16.543 19.7591C16.5339 20.053 16.4605 20.3383 16.2952 20.589C16.1575 20.8051 15.9556 20.8656 15.726 20.7446C15.5332 20.6408 15.3312 20.5112 15.2027 20.3469C14.303 19.2491 13.6144 18.0301 12.9809 16.7853C12.8065 16.4395 12.6413 16.0851 12.4577 15.7393C12.2741 15.3935 11.9802 15.212 11.5487 15.2293C11.2274 15.2379 10.9061 15.212 10.5848 15.212C9.84115 15.2206 9.08832 15.2206 8.34467 15.2466C8.11515 15.2552 7.88556 15.3503 7.65604 15.4195C7.57342 15.4454 7.5367 15.5146 7.55506 15.601C7.59178 15.7825 7.61931 15.9641 7.66521 16.1456C7.87637 16.9496 8.28034 17.6671 8.68429 18.3932C9.51975 19.906 10.4837 21.3411 11.5028 22.7501C11.8149 23.191 12.1455 23.6319 12.5127 24.0382C13.2288 24.8076 13.9909 25.5423 14.8906 26.1388C15.5424 26.5797 16.2309 26.9428 17.0296 27.0897C18.1129 27.2886 19.2056 27.3404 20.3073 27.2021C20.8673 27.133 21.2161 26.8045 21.2712 26.2771C21.3079 25.8449 21.3355 25.4213 21.3814 24.9891C21.4089 24.7298 21.5375 24.5223 21.8129 24.4272C22.1618 24.2975 22.7218 24.4618 22.9238 24.7643C23.2451 25.2398 23.6399 25.6461 24.0622 26.0351C24.4661 26.4154 24.8884 26.7785 25.3842 27.0465C25.6964 27.2194 26.0269 27.3491 26.3941 27.3318C26.8532 27.3145 27.3213 27.2886 27.7803 27.2713C28.5791 27.2367 29.3778 27.2108 30.1674 27.1675C30.5805 27.1502 30.7825 26.9514 30.8284 26.5624C30.8651 26.2166 30.7274 25.9054 30.5163 25.6461C30.1858 25.2312 29.8553 24.8162 29.4789 24.4445C28.8454 23.8134 28.166 23.2169 27.5142 22.6032C27.1469 22.2574 27.0459 21.8424 27.202 21.3756C27.3489 20.9434 27.6243 20.589 27.9364 20.2605C28.8178 19.3182 29.5981 18.3068 30.2959 17.2348C30.5438 16.8631 30.755 16.4655 30.8652 16.0246C30.9662 15.6097 30.6448 15.2466 30.1949 15.2466C28.7902 15.2552 27.3764 15.2552 25.9717 15.2466C25.5953 15.2379 25.3566 15.3762 25.2098 15.7047C24.9068 16.3531 24.5763 17.0014 24.255 17.6411C23.9245 18.2808 23.5388 18.886 23.0981 19.4738C22.7768 19.906 22.4188 20.2951 21.9414 20.5803C21.6843 20.7359 21.6293 20.7359 21.4457 20.4939C21.3998 20.4334 21.3446 20.3642 21.3262 20.295C21.2528 20.0357 21.1334 19.7764 21.1334 19.517C21.1334 18.6958 21.1702 17.8745 21.1977 17.0533C21.2161 16.6643 21.2712 16.2753 21.262 15.8949C21.2437 15.4195 20.9958 15.0823 20.5184 14.9008C20.1971 14.7798 19.8665 14.7711 19.5268 14.7538C18.7832 14.7279 18.0304 14.6847 17.2775 14.6674C16.7542 14.6587 16.231 14.7279 15.7444 14.9527C15.4873 15.0737 15.2853 15.2379 15.1752 15.5059Z" fill="#587DAF"></path>
                                </svg>