<svg xmlns:xlink="http://www.w3.org/1999/xlink" width="40" height="40" viewBox="0 0 40 40" fill="none" xmlns="http://www.w3.org/2000/svg">
                                    <path d="M20 40C31.0457 40 40 31.0457 40 20C40 8.9543 31.0457 0 20 0C8.9543 0 0 8.9543 0 20C0 31.0457 8.9543 40 20 40Z" fill="#51C44B"></path>
                                    <path d="M20.0035 10H19.9974C14.4844 10 10 14.4859 10 20C10 22.1869 10.7057 24.2152 11.9041 25.8612L10.658 29.5766L14.5022 28.3483C16.0828 29.3946 17.9697 30.0004 20.0035 30.0004C25.516 30.0004 30.0004 25.5145 30.0004 20.0005C30.0004 14.4859 25.516 10 20.0035 10ZM25.8217 24.1209C25.5804 24.8027 24.6228 25.3675 23.8583 25.5322C23.3362 25.6433 22.6533 25.732 20.3558 24.7794C17.4171 23.5623 15.5252 20.5758 15.3777 20.3817C15.2372 20.188 14.1909 18.8005 14.1909 17.3659C14.1909 15.9312 14.9194 15.2322 15.2134 14.9321C15.4547 14.6852 15.8542 14.5736 16.2364 14.5736C16.3596 14.5736 16.4716 14.5792 16.571 14.5848C16.865 14.597 17.012 14.6147 17.2062 15.0791C17.4475 15.661 18.0345 17.0952 18.1045 17.2422C18.176 17.3897 18.2459 17.5889 18.1466 17.7831C18.0513 17.9833 17.9697 18.0716 17.8226 18.2419C17.6756 18.4127 17.5347 18.542 17.3877 18.724C17.2523 18.8822 17.1008 19.0535 17.2706 19.347C17.4409 19.635 18.029 20.5931 18.8928 21.3631C20.0096 22.3567 20.9145 22.6741 21.2374 22.8094C21.4787 22.9093 21.7667 22.886 21.9431 22.6979C22.1666 22.4566 22.4424 22.0571 22.7253 21.6632C22.925 21.3809 23.1775 21.3454 23.4421 21.4453C23.7123 21.539 25.1404 22.2447 25.4344 22.3917C25.7279 22.5387 25.9221 22.6092 25.993 22.7329C26.063 22.8571 26.063 23.4391 25.8217 24.1209Z" fill="#FFFFFF"></path>
                                </svg>